<svg version="1.2" xmlns="http://www.w3.org/2000/svg" viewBox="0 0 100 100" >
	<path id="Path 0" fill-rule="evenodd" class="s0" d="m56 4l7 7 0.02 29.5 9.15 8c5.22 4.56 9.72 9.4 10.49 11.25 0.92 2.22 1.34 7.98 1.34 18.25 0 8.25-0.22 15.67-0.5 16.5-0.42 1.25-3.14 1.5-16.25 1.51-11.66 0-16.27-0.35-17.75-1.36-1.1-0.75-5.71-6.38-10.25-12.5-7.96-10.76-8.38-11.15-12-11.14-2.06 0-4.85-0.79-6.19-1.75-1.34-0.97-3.03-3.22-3.75-5.01-0.95-2.37-1.31-9.77-1.31-27.25 0-19.33 0.29-24.58 1.5-27 0.82-1.65 2.51-3.68 3.75-4.51 1.78-1.19 5.67-1.5 34.75-1.49zm6.5 66.5c-8.56 0.5-9.63 0.04-15.5-4.52-3.58-2.78-6.97-5.03-7.55-5.02-0.58 0.02-1.6 0.6-2.27 1.29-0.67 0.69-1.21 1.81-1.2 2.5 0.01 0.69 3.46 5.86 7.66 11.5 4.2 5.64 8.36 10.82 9.25 11.52 1.09 0.85 5.27 1.26 12.86 1.25l11.25-0.02v-26c-9.69-9.26-12.82-11.96-13.21-11.98-0.4-0.01-0.85 4.37-1 9.73z"/>
</svg>