<svg version="1.2" xmlns="http://www.w3.org/2000/svg" viewBox="0 0 512 512">
	<path id="Path 0" class="s0" d="m137.5 85.68c-1.1 0.24-5.6 1.35-10 2.46-4.4 1.1-11.6 3.82-16 6.04-4.4 2.22-10.03 5.5-12.5 7.3-2.47 1.8-7.88 6.87-12 11.26-4.13 4.39-8.96 10.41-10.74 13.37-1.79 2.96-4.35 8.09-5.7 11.39-1.35 3.3-3.26 8.93-4.25 12.5-1.34 4.88-1.78 10.12-1.77 21 0.01 10.85 0.46 16.14 1.81 21 0.99 3.57 3.72 10.55 6.06 15.5 2.34 4.95 6.94 12.37 10.21 16.5 3.28 4.12 9.32 10.16 13.42 13.4 4.1 3.25 11.51 7.83 16.46 10.18 4.95 2.35 11.92 5.08 15.5 6.07 4.86 1.35 10.15 1.8 21 1.81 10.88 0.01 16.12-0.43 21-1.77 3.57-0.99 9.2-2.9 12.5-4.25 3.3-1.35 8.47-3.91 11.48-5.7 3.02-1.78 9.81-7.52 15.11-12.74 6.29-6.21 11-11.92 13.6-16.5 2.19-3.85 4.95-9.48 6.13-12.5 1.17-3.03 2.83-8.2 3.68-11.5 0.85-3.3 1.82-9.82 2.16-14.5 0.35-4.75 0.12-12.03-0.52-16.5-0.62-4.4-2.2-11.15-3.49-15-1.3-3.85-3.61-9.48-5.13-12.5-1.52-3.03-4.68-8.2-7.02-11.5-2.35-3.3-6.91-8.5-10.13-11.55-3.23-3.06-7.9-6.93-10.37-8.62-2.47-1.68-6.97-4.31-10-5.84-3.03-1.52-7.97-3.63-11-4.68-3.03-1.05-8.54-2.56-12.25-3.36-3.71-0.8-10.91-1.4-16-1.33-5.09 0.06-10.15 0.31-11.25 0.56zm192 0c-1.1 0.24-5.6 1.35-10 2.46-4.4 1.1-11.6 3.82-16 6.04-4.4 2.22-10.02 5.5-12.5 7.3-2.48 1.8-7.88 6.87-12 11.26-4.13 4.39-8.96 10.41-10.74 13.37-1.79 2.96-4.35 8.09-5.7 11.39-1.35 3.3-3.26 8.93-4.25 12.5-1.34 4.88-1.78 10.12-1.77 21 0.01 10.85 0.46 16.14 1.81 21 0.99 3.57 3.72 10.55 6.06 15.5 2.34 4.95 6.94 12.37 10.21 16.5 3.28 4.12 9.32 10.16 13.42 13.4 4.1 3.25 11.51 7.83 16.46 10.18 4.95 2.35 11.93 5.08 15.5 6.07 4.86 1.35 10.15 1.8 21 1.81 10.88 0.01 16.12-0.43 21-1.77 3.57-0.99 9.2-2.9 12.5-4.25 3.3-1.35 8.47-3.91 11.48-5.7 3.02-1.78 9.81-7.52 15.11-12.74 6.29-6.21 11-11.92 13.6-16.5 2.19-3.85 4.95-9.48 6.13-12.5 1.17-3.03 2.83-8.2 3.68-11.5 0.85-3.3 1.82-9.82 2.16-14.5 0.35-4.75 0.12-12.03-0.52-16.5-0.62-4.4-2.2-11.15-3.49-15-1.3-3.85-3.61-9.48-5.13-12.5-1.52-3.03-4.68-8.2-7.02-11.5-2.35-3.3-6.91-8.5-10.13-11.55-3.23-3.06-7.89-6.93-10.37-8.62-2.48-1.68-6.98-4.31-10-5.84-3.02-1.52-7.98-3.63-11-4.68-3.02-1.05-8.54-2.56-12.25-3.36-3.71-0.8-10.91-1.4-16-1.33-5.09 0.06-10.15 0.31-11.25 0.56zm-207.5 192.79c-4.67 0.76-12.33 2.6-17 4.07-4.67 1.48-11.42 4.01-15 5.63-3.58 1.62-10.78 5.8-16 9.29-5.22 3.49-13.26 10.11-17.85 14.7-4.78 4.77-11.32 12.84-15.29 18.84-3.81 5.77-8.23 13.65-9.82 17.5-1.59 3.85-4.01 10.83-5.36 15.5-1.36 4.68-3.01 12.77-3.67 18-0.66 5.23-1.05 14.04-0.86 19.58 0.32 9.14 0.63 10.54 3.35 14.95 2.22 3.6 4.43 5.59 8.5 7.69l5.5 2.84c88.74-0.05 114.5-0.29 114.5-0.56 0-0.27-0.72-3.54-1.61-7.25-1.27-5.34-1.49-9.99-1.05-22.25 0.35-9.99 1.3-19.05 2.66-25.5 1.16-5.5 3.69-14.73 5.61-20.5 1.92-5.77 5.71-15 8.41-20.5 2.7-5.5 7.52-13.91 10.7-18.69 3.18-4.78 9.38-12.82 13.78-17.86 6.39-7.33 7.7-9.35 6.5-10.03-0.82-0.47-6.45-2.07-12.5-3.55-9.95-2.44-13.09-2.73-33-2.99-15.35-0.21-24.57 0.12-30.5 1.09zm181.5-0.36c-3.85 0.53-10.6 1.88-15 3.02-4.4 1.13-10.7 3.08-14 4.32-3.3 1.25-8.48 3.51-11.5 5.03-3.02 1.52-9.21 5.19-13.75 8.14-4.54 2.96-12.37 9.32-17.41 14.13-5.03 4.81-11.83 12.35-15.09 16.75-3.27 4.4-8.4 12.95-11.41 19-3.01 6.05-6.55 14.6-7.87 19-1.32 4.4-3.1 12.05-3.95 17-0.85 4.95-1.54 12.71-1.53 17.25 0.01 4.62 0.6 9.68 1.36 11.5 0.74 1.79 2.47 4.6 3.84 6.25 1.36 1.65 4.58 4.01 7.15 5.25l4.66 2.25 264.5 0.06c9.58-4.94 11.77-6.93 14-10.55 2.87-4.65 3-5.36 2.96-15.94-0.02-7.74-0.73-14.23-2.34-21.57-1.27-5.77-3.85-14.55-5.75-19.5-1.89-4.95-5.52-12.6-8.05-17-2.54-4.4-6.97-11.15-9.85-15-2.87-3.85-9.02-10.6-13.65-15-4.63-4.4-12-10.39-16.37-13.31-4.37-2.92-11.55-7.06-15.95-9.19-4.4-2.14-11.37-5-15.5-6.37-4.12-1.36-10.87-3.24-15-4.18-6.12-1.39-13.93-1.76-42.5-2-19.25-0.16-38.15 0.14-42 0.66z"/>
</svg>